<?xml version="1.0"?>
<svg xmlns="http://www.w3.org/2000/svg" viewBox="0 0 32 32">
    <path style="line-height:normal;text-indent:0;text-align:start;text-decoration-line:none;text-decoration-style:solid;text-decoration-color:#000;text-transform:none;block-progression:tb;isolation:auto;mix-blend-mode:normal" d="M 16 2.8828125 L 3 9.3828125 L 3 22.617188 L 16 29.117188 L 29 22.617188 L 29 22 L 29 9.3828125 L 16 2.8828125 z M 16 5.1171875 L 27 10.617188 L 27 21.382812 L 16 26.882812 L 5 21.382812 L 5 10.617188 L 16 5.1171875 z M 13 10 C 9.7 10 7 12.7 7 16 C 7 19.3 9.7 22 13 22 C 14.5 22 15.900391 21.4 16.900391 20.5 L 15.199219 19.300781 C 14.599219 19.700781 13.8 20 13 20 C 10.8 20 9 18.2 9 16 C 9 13.8 10.8 12 13 12 C 13.8 12 14.599219 12.299219 15.199219 12.699219 L 16.900391 11.5 C 15.900391 10.6 14.5 10 13 10 z M 18 12 L 18 13 L 17 13 L 17 15 L 18 15 L 18 17 L 17 17 L 17 19 L 18 19 L 18 20 L 20 20 L 20 19 L 22 19 L 22 20 L 24 20 L 24 19 L 25 19 L 25 17 L 24 17 L 24 15 L 25 15 L 25 13 L 24 13 L 24 12 L 22 12 L 22 13 L 20 13 L 20 12 L 18 12 z M 20 15 L 22 15 L 22 17 L 20 17 L 20 15 z" font-weight="400" font-family="sans-serif" white-space="normal" overflow="visible"/>
</svg>
